PathFileType	3	(X/Y/Z)	D:\Jess\PFP\Labelled\PA12\20250811\SRRun01.trc
DataRate	CameraRate	NumFrames	NumMarkers	Units	OrigDataRate	OrigDataStartFrame	OrigNumFrames
250.0	250.0	4	37	mm	250.0	35937	2501
Frame#	Time	C7			T10			CLAV			LSHO			RSHO			LASIS			RASIS			LPSIS			RPSIS			LILCR			RILCR			LGTR			LTHI			LLTHI			LLEP			LMEP			LPSH			LLSH			LDSH			LLMAL			LMMAL			LTOE			L5TH			LHEE			RGTR			RTHI			RLTHI			RLEP			RMEP			RPSH			RLSH			RDSH			RLMAL			RMMAL			RTOE			R5TH			RHEE			
		X1	Y1	Z1	X2	Y2	Z2	X3	Y3	Z3	X4	Y4	Z4	X5	Y5	Z5	X6	Y6	Z6	X7	Y7	Z7	X8	Y8	Z8	X9	Y9	Z9	X10	Y10	Z10	X11	Y11	Z11	X12	Y12	Z12	X13	Y13	Z13	X14	Y14	Z14	X15	Y15	Z15	X16	Y16	Z16	X17	Y17	Z17	X18	Y18	Z18	X19	Y19	Z19	X20	Y20	Z20	X21	Y21	Z21	X22	Y22	Z22	X23	Y23	Z23	X24	Y24	Z24	X25	Y25	Z25	X26	Y26	Z26	X27	Y27	Z27	X28	Y28	Z28	X29	Y29	Z29	X30	Y30	Z30	X31	Y31	Z31	X32	Y32	Z32	X33	Y33	Z33	X34	Y34	Z34	X35	Y35	Z35	X36	Y36	Z36	X37	Y37	Z37	

938	143.744	834.8541534945772	1538.181924594682	-312.2419409347881	756.3396113345927	1256.160883716249	-316.538045846361	993.2865166372202	1436.055976845426	-366.3911019733693	846.3221874109412	1542.239445917826	-470.091905012781	945.0294167766467	1515.719050448659	-189.9121810589839	977.3574187057014	1014.958858450582	-466.8053964733147	987.5202966453542	1003.56713244576	-234.9825092366714	767.9347600102641	1049.484724445123	-357.5636527734329	768.523089706337	1051.753947918717	-315.1919886003537	889.5705357079596	1100.890505736755	-528.9259294711203	883.1476729587714	1096.33606794753	-159.6081187068443	935.6348111066312	906.448177732147	-537.1625792899746	1073.405711775317	772.1711022349774	-453.0657096861153	982.0769392489774	645.962792706001	-503.0552009605348	999.3337392467444	512.5075962815345	-479.0933906211612	nan	nan	nan	1059.14208285807	440.0260256690322	-416.8750865124262	979.351735219368	312.6648449204131	-465.8826911116024	1039.520197419911	208.6709917102964	-387.7127695213432	983.5835090122686	99.00276534225134	-409.2443257606711	nan	nan	nan	1146.390175582587	70.56302309583471	-414.4950242702028	1107.954624783136	40.17904907698761	-452.5141797374353	916.2595737003742	73.69136021855127	-355.5129103423149	857.098091388141	893.7066875250072	-138.6672286485625	985.1003701340568	679.9791643731136	-229.6403657736098	836.8969750054973	623.1190573555175	-170.709983234082	796.7668495779183	519.9442661687031	-191.2498736213258	nan	nan	nan	750.9719350985733	419.5156793101214	-243.7565273572939	610.1375181393663	469.6553578588906	-206.1486833034235	522.8591011119727	358.5204864238241	-258.8867892684329	407.3548313671841	380.3323061827718	-247.3090513458012	nan	nan	nan	372.3015761226183	231.0508031330338	-210.8134214151304	333.0870422450724	275.6897548545733	-191.7795994056465	377.5635595951212	430.9819522237199	-337.0612884108987	
939	143.748	834.6759903029382	1535.765756620239	-313.6679137541176	755.8007925575992	1253.607704973671	-316.6356632468234	993.3509168843531	1432.523212042224	-366.900619293867	846.2717554930283	1538.724184635609	-471.666524005661	945.1879309083496	1512.921090949468	-190.0458330708201	975.8179578678461	1011.800912398705	-467.1417433024002	987.1075236940848	999.9108603532537	-235.4682492753972	766.6007153762328	1045.677513850309	-357.1691461033585	767.4783341279814	1047.352543222295	-314.7451046374944	888.3865496245643	1097.032917990004	-529.1936782258643	882.5114340673877	1091.373758482687	-159.2254990575974	934.4971571458741	904.4354117026473	-537.8107345156099	1072.780823775623	770.6335951695269	-454.7427786961197	980.9256394168134	644.3138025216598	-503.092431713281	999.1085406781656	511.1316423462694	-478.9076990192792	nan	nan	nan	1057.714633832086	438.3428915087838	-415.6473795941557	976.235933894229	311.8669412983139	-465.0378521768201	1033.079861121043	207.1595963814091	-385.6994146051275	974.4605292102347	99.12833741365638	-407.4455109536651	nan	nan	nan	1136.81728065734	69.02923574729503	-413.1648487549319	1097.770748564311	40.03761309147539	-451.9453948088582	906.5496941117633	74.2728661671341	-354.1725426560715	858.8267693189374	888.6666418017314	-138.2278921235402	988.7416841300142	678.0419109749612	-229.2784246191746	841.9965338997079	618.9698175356933	-169.8609849977799	803.6078852793737	516.4065573576917	-190.0744367309766	nan	nan	nan	757.4288264372556	417.0280738341272	-242.8441686481395	617.2915918139719	469.079425247593	-204.5165466359115	528.2968237290665	360.0626555013972	-257.8813669450254	413.1527782175847	383.7351028382433	-245.7541487489055	nan	nan	nan	376.5430300673286	234.7612536045487	-210.0118734928659	337.908770533718	279.7437731239751	-190.5335198043981	383.4532116348748	435.4089954425631	-335.0348234780989	
940	143.752	834.5853631081734	1533.464432854005	-315.0696896341839	755.1996631673856	1251.235588820901	-316.6612745588538	993.4551453894688	1428.98384063589	-367.3916201482425	846.2798802860599	1535.255707780324	-473.2469715287922	945.4059944718258	1510.158554222897	-190.1529081078819	974.1389509202817	1008.729313991352	-467.5144613473072	986.5685200525519	996.1284534264345	-236.0012233464807	765.1803415013883	1042.045829377624	-356.6428911623287	766.3388134961793	1043.07639286883	-314.1733466314476	887.0156319270934	1093.32710237606	-529.4278153954922	881.8716493258626	1086.237665050096	-158.7914143578246	933.2052745681626	902.610319935157	-538.4680571907228	1071.998303950618	769.2219490618121	-456.307672925135	979.8347506491602	642.7562952664829	-503.1675562685001	998.9985032761256	509.9384766049093	-478.7041554059093	nan	nan	nan	1056.232918136652	436.8527425443759	-414.36653556293	973.045284500676	311.3119631349812	-464.2741859528019	1026.502659060649	205.8639221271708	-383.799763769892	965.2830715040603	99.4523964543917	-405.7979767611503	nan	nan	nan	1127.144465445929	67.83919218681217	-411.8879651516932	1087.586088370593	40.1085519048185	-451.3408429461696	896.7895838635237	74.91703465276937	-352.9864394400931	860.5041609516065	883.5439612887068	-137.8348608035216	992.3954169216881	676.2999448211561	-228.9791033155241	847.1514450907604	615.0362237168924	-169.0564880902706	810.588889988457	513.050802071159	-188.9069902756532	nan	nan	nan	764.1404208483666	414.6480696057455	-241.9474896800153	624.6875876009864	468.4135402584173	-202.841579846144	534.1229104495316	361.4516725013202	-256.8575640164999	419.3267172855113	386.8130015620432	-244.129040001695	nan	nan	nan	381.394306418225	238.0616875952607	-209.2543176328865	343.2596223890916	283.3071213063726	-189.2983003431366	389.6406438522852	439.547679462083	-332.8823529511979	
941	143.756	834.5915315874771	1531.286606420859	-316.4372865052838	754.5356524494327	1249.063005882519	-316.6185106913507	993.6024655265636	1425.45072235105	-367.8596084740311	846.3621090171555	1531.854903601238	-474.8250573962159	945.6817149679032	1507.446341824428	-190.242185083972	972.3344810064099	1005.767815234924	-467.9236402621479	985.9071644187676	992.2477272896119	-236.5736674657958	763.690239367386	1038.616582219666	-355.9808754675422	765.1161604827411	1038.965426848441	-313.4746283067249	885.4456323120957	1089.806941996842	-529.6180431424802	881.2185700168856	1080.98149835542	-158.3174618379616	931.7561682569159	900.9727764924373	-539.1186752142695	1071.071850749331	767.9501421200727	-457.7368562126413	978.797443439022	641.2910052303084	-503.2820067363683	998.941029323443	508.9084770368644	-478.5014350683822	nan	nan	nan	1054.651917528692	435.5237887846613	-413.0913871052476	969.7218098911316	310.9744206625414	-463.6134790137341	1019.777703077868	204.7619885629135	-382.0583164200516	956.0487522993711	99.94083798844569	-404.3337693392188	nan	nan	nan	1117.377158189428	66.94528893162754	-410.7085533604898	1077.397193333862	40.3360708908436	-450.736852753351	886.9800537574192	75.61345926267792	-351.970426360762	862.1216338576571	878.3796425130992	-137.499711818598	996.0681170227033	674.7741079134199	-228.7664876670786	852.3725720152617	611.339007942711	-168.2995193248527	817.7259582543188	509.892803856072	-187.7569329825024	nan	nan	nan	771.1116080463903	412.3866882959972	-241.0725548665041	632.3241640035471	467.6749375484935	-201.138526538096	540.3294483232139	362.6839386751653	-255.8224169115406	425.8604040360714	389.5591085656946	-242.4449251682784	nan	nan	nan	386.8496300806444	240.9427373234064	-208.5344267801545	349.1342328148703	286.3720412251157	-188.0655193901039	396.0982006523073	443.3766544844115	-330.6166887410212	
